<?xml version="1.0" encoding="UTF-8"?>
<svg xmlns="http://www.w3.org/2000/svg" viewBox="0 0 314 333">
  <path fill="#00CBEA" fill-rule="evenodd" d="M3.0975 77.943C15.043 52.3988 28.798 53.226 52.3657 50.235c32.4697-4.121 24.049-11.7998 46.2818-33.7017 38.6825-38.1068 57.1825 1.341 87.4827 20.26 48.6039 30.3473 99.1227 5.9432 102.4633 78.4181 2.179 47.2796 51.06 85.6265 6.5135 128.7476-20.586 19.9274-29.5414 24.2887-43.1058 50.9975-11.4614 22.5685-25.8197 40.646-54.7928 37.6677-15.028-1.5452-28.4371-11.3302-41.8475-17.3042-22.3444-9.9534-39.9227-10.7675-63.4072-12.4894-50.9246-3.7352-70.8987-36.8477-72.9675-87.347-1.0888-26.585-.4222-47.2412-8.0779-73.3874-6.2623-21.3873-14.3429-41.892-7.8108-64.1532"/>
</svg>
