<?xml version="1.0" encoding="UTF-8"?>
<svg width="202px" height="187px" viewBox="0 0 202 187" version="1.1" xmlns="http://www.w3.org/2000/svg" xmlns:xlink="http://www.w3.org/1999/xlink">
    <!-- Generator: Sketch 51.2 (57519) - http://www.bohemiancoding.com/sketch -->
    <title>Group 6</title>
    <desc>Created with Sketch.</desc>
    <defs></defs>
    <g id="Shapes-colours" stroke="none" stroke-width="1" fill="none" fill-rule="evenodd">
        <g id="Group-6" fill="#5DD26D">
            <path d="M39.5469095,92.8362295 C38.0287791,93.3739835 36.4674498,93.7685984 34.8752642,94.0138996 C27.3822301,95.1691164 6.28268533,97.3695295 2.53729032,86.2894394 C-1.80783915,73.4361082 -0.650447009,53.0626409 6.61481143,41.5637987 C23.1526715,15.3889872 61.2652636,5.07623502 89.9492894,1.54996083 C103.496893,-0.114943541 118.790402,-3.24828683 127.071674,10.1658129 C130.830534,16.2551192 134.618567,26.4365202 133.915043,33.7663656 C133.162149,41.6075824 127.11319,46.2396764 121.522588,51.434223 C110.128755,62.0197815 97.572481,69.7739922 83.933431,76.9393679 C83.2613244,77.2924443 82.5622887,77.5966851 81.8458613,77.8498449 L39.5469095,92.8362295 Z" id="Fill-1-Copy-8"></path>
            <path d="M130.878191,177.169598 C129.607199,178.167196 128.248766,179.043669 126.813047,179.788363 C120.054732,183.295379 100.684654,192.175631 93.5291884,182.905087 C85.2285324,172.150203 79.7287978,152.510581 82.9184069,139.296187 C90.1799296,109.214586 123.115718,87.1805037 149.276832,74.6031376 C161.633041,68.6624084 175.173931,60.7719043 187.402646,70.7882631 C192.954281,75.3354949 199.858143,83.743023 201.563518,90.9006091 C203.387925,98.5583964 199.130975,104.888296 195.492316,111.601196 C188.076785,125.283827 178.637144,136.662841 167.977283,147.833252 C167.451511,148.383921 166.883993,148.89702 166.284884,149.367501 L130.878191,177.169598 Z" id="Fill-4-Copy-3"></path>
        </g>
    </g>
</svg>
