<svg xmlns="http://www.w3.org/2000/svg" width="321" height="303" viewBox="0 0 321 303">
  <path fill="#FFAA0D" fill-rule="evenodd" d="M129.110999,282.32996 C125.157063,283.72812 121.090615,284.754119 116.943804,285.391902 C97.428364,288.395466 42.4750721,294.11654 32.7202746,265.308305 C21.4034822,231.889644 24.4178841,178.918629 43.340087,149.021639 C86.4125734,80.9671297 185.675966,54.153974 260.382869,44.9856611 C295.667298,40.6569097 335.498901,32.5102172 357.06729,67.3868764 C366.857155,83.2190729 376.723002,109.690716 374.89069,128.748313 C372.929794,149.135477 357.175417,161.178922 342.614818,174.684743 C312.939836,202.207195 280.237301,222.368143 244.714701,240.998119 C242.964214,241.916118 241.143591,242.707144 239.277672,243.36536 L129.110999,282.32996 Z" transform="scale(-1 1) rotate(-15 -36.856 1527.99)"/>
</svg>
