<svg xmlns="http://www.w3.org/2000/svg" viewBox="0 0 202 187">
  <g fill="#FFAA0D" fill-rule="evenodd">
    <path d="M39.547 92.8362a25.7029 25.7029 0 0 1-4.6717 1.1777c-7.493 1.1552-28.5926 3.3556-32.338-7.7245-4.3451-12.8533-3.1877-33.2268 4.0775-44.7256C23.1527 15.389 61.2653 5.0762 89.9493 1.55c13.5476-1.665 28.8411-4.7983 37.1224 8.6158 3.7588 6.0893 7.5469 16.2707 6.8433 23.6006-.7529 7.8412-6.8018 12.4733-12.3924 17.6678-11.3938 10.5856-23.9501 18.3398-37.5892 25.5052a15.8386 15.8386 0 0 1-2.0875.9104l-42.299 14.9864z"/>
    <path d="M130.8782 177.1696a25.8817 25.8817 0 0 1-4.0652 2.6188c-6.7583 3.507-26.1283 12.3872-33.2838 3.1167-8.3007-10.7549-13.8004-30.3945-10.6108-43.609 7.2615-30.0815 40.1973-52.1156 66.3584-64.693 12.3562-5.9407 25.8971-13.8312 38.1258-3.8148 5.5517 4.5472 12.4555 12.9547 14.161 20.1123 1.8243 7.6578-2.4326 13.9877-6.0713 20.7006-7.4155 13.6826-16.8552 25.0616-27.515 36.232a16.027 16.027 0 0 1-1.6924 1.5343l-35.4067 27.8021z"/>
  </g>
</svg>
