<svg xmlns="http://www.w3.org/2000/svg" viewBox="0 0 708 655">
  <path fill="#F71963" fill-rule="evenodd" d="M367.039894,3476.37496 C340.32596,3423.76608 359.398051,3402.14938 384.811425,3359.43206 C419.823774,3300.57914 396.329077,3304.57213 388.861342,3239.69196 C375.868323,3126.80778 464.691016,3147.12378 534.877235,3121.53227 C647.46103,3080.48138 672.287053,2965.73287 796.017212,3053.59827 C876.733077,3110.91833 1002.85599,3079.71705 1016.56222,3208.73124 C1022.89651,3268.35199 1018.55361,3288.73862 1045.10253,3345.51742 C1067.5365,3393.49416 1078.84019,3440.46182 1036.63071,3484.40221 C1014.73654,3507.19303 981.348492,3516.69859 954.238796,3531.11601 C909.069488,3555.139 885.096521,3583.07735 852.023825,3619.5856 C780.305601,3698.74963 700.024654,3689.02659 614.145004,3627.37648 C568.934442,3594.92066 535.754065,3567.20888 482.81216,3546.14742 C439.50629,3528.91952 395.313801,3515.82726 367.039894,3476.37496" transform="rotate(8 22159.727 -630.076)"/>
</svg>
