<svg xmlns="http://www.w3.org/2000/svg" x="0" y="0" version="1.1" viewBox="0 0 287 314" xml:space="preserve">
  <path fill="#5dd26d" d="M264.66,202.99c-21.06-54.47-33.63-111.95-55.08-166.27	c-5.11-12.93-12.32-27.14-25.71-30.84c-8.09-2.24-16.89,0.04-24.13,4.28c-7.25,4.24-13.23,10.29-19.18,16.22	c-31.51,31.39-64.63,61.39-101.34,86.48c-14.39,9.84-30.19,19.95-36.64,36.15C-2.76,162.41,0.59,178,9,189.36	c4.3,5.81,9.82,10.29,16.3,13.43c7.71,3.75,14.76,8.81,22.45,12.7c2.54,1.28,5.08,2.57,7.58,3.94l3.6,2.06	c0.76,0.36,1.6,0.9,2.4,1.37c24.76,14.7,51.43,25.81,77.02,38.88c26.59,13.59,53.34,26.89,80.77,38.71	c14.04,6.06,30.45,11.68,44.08,4.76c12.46-6.33,18.16-21.36,18.74-35.34C282.9,246.69,273.02,224.64,264.66,202.99"/>
</svg>
